<svg width="150" height="150" viewBox="0 0 150 150" fill="none" xmlns="http://www.w3.org/2000/svg">
<path d="M140.959 97.625C141.002 96.6381 140.741 95.6616 140.212 94.8273C139.684 93.9929 138.912 93.3406 138.001 92.9583L131.001 90.875C130.626 89.875 130.251 88.875 129.792 87.9167L133.042 81.9167C133.53 80.9978 133.709 79.9459 133.551 78.9175C133.394 77.889 132.908 76.9389 132.167 76.2083L126.251 70.3333C125.515 69.5993 124.563 69.1218 123.535 68.9717C122.506 68.8216 121.457 69.0068 120.542 69.5L114.501 72.6667C113.469 72.167 112.412 71.7219 111.334 71.3333L109.334 64.75C109 63.7957 108.373 62.9714 107.542 62.3951C106.712 61.8189 105.72 61.5201 104.709 61.5417H96.3757C95.3405 61.5408 94.3325 61.8723 93.4999 62.4874C92.6673 63.1025 92.0541 63.9686 91.7507 64.9583L89.7924 71.375C88.6998 71.7616 87.6288 72.2067 86.584 72.7083L80.6674 69.5417C79.7574 69.0584 78.7167 68.8786 77.6973 69.0286C76.6779 69.1785 75.7331 69.6502 75.0007 70.375L68.959 76.2083C68.2088 76.9419 67.7177 77.8997 67.5599 78.937C67.402 79.9743 67.586 81.0348 68.084 81.9583L71.1674 87.5C70.6831 88.5045 70.252 89.5337 69.8757 90.5833L63.2924 92.5417C62.2914 92.8316 61.4122 93.44 60.7882 94.2747C60.1641 95.1093 59.8291 96.1246 59.834 97.1667V105.5C59.8382 106.535 60.1773 107.541 60.8007 108.367C61.4241 109.193 62.2982 109.795 63.2924 110.083L69.9174 112.042C70.2956 113.063 70.7267 114.065 71.209 115.042L67.959 121.125C67.4711 122.044 67.2926 123.096 67.4503 124.124C67.6079 125.153 68.0932 126.103 68.834 126.833L74.7507 132.667C75.4813 133.408 76.4314 133.893 77.4598 134.05C78.4883 134.208 79.5401 134.03 80.459 133.542L86.6257 130.292C87.584 130.75 88.584 131.125 89.6257 131.5L91.6674 138.25C91.9781 139.232 92.5944 140.089 93.4264 140.696C94.2583 141.303 95.2625 141.629 96.2924 141.625H104.626C105.661 141.626 106.669 141.294 107.502 140.679C108.334 140.064 108.947 139.198 109.251 138.208L111.209 131.625C112.209 131.292 113.167 130.875 114.126 130.417L120.376 133.708C121.286 134.192 122.326 134.371 123.346 134.221C124.365 134.072 125.31 133.6 126.042 132.875L131.959 127.042C132.709 126.308 133.2 125.35 133.358 124.313C133.516 123.276 133.332 122.215 132.834 121.292L129.542 115.25C129.987 114.306 130.39 113.347 130.751 112.375L137.501 110.417C138.502 110.127 139.381 109.518 140.005 108.684C140.629 107.849 140.964 106.834 140.959 105.792V97.625ZM134.292 104.417L125.501 107L125.001 108.75C124.487 110.473 123.788 112.135 122.917 113.708L122.042 115.292L126.209 123.25L122.042 127.417L113.709 123.25L112.167 124.083C110.576 124.936 108.901 125.621 107.167 126.125L105.417 126.625L102.792 135.333H97.584L94.959 126.667L93.209 126.167C91.4616 125.665 89.7718 124.98 88.1674 124.125L86.6257 123.292L78.5424 127.458L74.3757 123.292L78.5424 115.208L77.6257 113.625C76.7897 111.939 76.1467 110.164 75.709 108.333L75.0007 106.792L66.6674 104.167V98.7083L75.0007 96.1667L75.5424 94.4583C76.0829 92.6722 76.8237 90.953 77.7507 89.3333L78.7507 87.5L74.584 79.7917L78.7507 75.875L86.6257 80.0417L88.209 79.1667C89.8745 78.2546 91.6351 77.528 93.459 77L95.1674 76.5L97.7924 68.1667H103.542L106.126 76.5L107.834 77C109.601 77.5387 111.305 78.2651 112.917 79.1667L114.501 80.0417L122.501 75.875L126.667 80.0417L122.501 87.9167L123.376 89.5C124.25 91.1007 124.948 92.791 125.459 94.5417L125.959 96.2917L134.542 98.8333L134.292 104.417Z" fill="#FFE600"/>
<path d="M100.5 84.7917C97.219 84.8573 94.03 85.8903 91.3334 87.7611C88.6368 89.6319 86.5525 92.2572 85.342 95.3078C84.1315 98.3585 83.8487 101.699 84.5289 104.909C85.2091 108.12 86.8222 111.059 89.1658 113.356C91.5094 115.654 94.4792 117.208 97.7028 117.825C100.926 118.441 104.26 118.093 107.286 116.822C110.312 115.551 112.896 113.415 114.713 110.682C116.53 107.949 117.5 104.74 117.5 101.458C117.435 97.0007 115.612 92.7493 112.428 89.6284C109.245 86.5074 104.958 84.7692 100.5 84.7917ZM100.5 111.708C98.5072 111.667 96.5705 111.039 94.9331 109.902C93.2957 108.764 92.0304 107.169 91.2959 105.316C90.5614 103.462 90.3904 101.434 90.8043 99.4834C91.2182 97.5333 92.1985 95.7487 93.6225 94.3535C95.0464 92.9582 96.8506 92.0144 98.8087 91.6403C100.767 91.2662 102.792 91.4785 104.63 92.2506C106.468 93.0227 108.037 94.3202 109.141 95.9804C110.244 97.6407 110.833 99.5897 110.834 101.583C110.823 102.929 110.547 104.26 110.022 105.5C109.496 106.739 108.732 107.863 107.773 108.807C106.813 109.751 105.677 110.497 104.429 111.002C103.181 111.507 101.846 111.761 100.5 111.75V111.708Z" fill="#FFE600"/>
<path d="M60.3753 129.167H25.0003V20.8333H108.334V53.7083C110.152 54.242 111.836 55.1572 113.273 56.393C114.71 57.6288 115.867 59.1568 116.667 60.875V20.8333C116.667 18.6232 115.789 16.5036 114.226 14.9408C112.663 13.378 110.544 12.5 108.334 12.5H25.0003C22.7902 12.5 20.6706 13.378 19.1078 14.9408C17.545 16.5036 16.667 18.6232 16.667 20.8333V129.167C16.667 131.377 17.545 133.496 19.1078 135.059C20.6706 136.622 22.7902 137.5 25.0003 137.5H67.6253L63.042 133C61.9283 131.894 61.0248 130.595 60.3753 129.167Z" fill="#FFE600"/>
</svg>
