<svg width="150" height="150" viewBox="0 0 150 150" fill="none" xmlns="http://www.w3.org/2000/svg">
<path d="M62.3325 112.5H87.67C88.495 104.988 92.3263 98.7875 98.545 92.0188C99.2513 91.2563 103.745 86.6 104.276 85.9375C108.691 80.4227 111.457 73.7732 112.258 66.7549C113.059 59.7365 111.861 52.6346 108.803 46.2671C105.744 39.8997 100.95 34.5255 94.9707 30.7636C88.9918 27.0017 82.072 25.0051 75.008 25.0035C67.9441 25.002 61.0234 26.9958 55.0429 30.7551C49.0624 34.5145 44.2654 39.8865 41.2042 46.2527C38.143 52.6189 36.9421 59.7202 37.74 66.739C38.5378 73.7577 41.3018 80.4083 45.7138 85.925C46.2513 86.5938 50.7575 91.2563 51.4513 92.0125C57.6763 98.7875 61.5075 104.988 62.3325 112.5ZM87.5013 125H62.5013V131.25H87.5013V125ZM35.9638 93.75C30.0775 86.3956 26.3884 77.528 25.3217 68.1686C24.2549 58.8092 25.8538 49.3388 29.9341 40.8484C34.0144 32.358 40.4102 25.193 48.3848 20.1787C56.3593 15.1644 65.5881 12.5048 75.008 12.5063C84.428 12.5078 93.656 15.1703 101.629 20.1872C109.602 25.2041 115.995 32.3711 120.073 40.8629C124.15 49.3546 125.746 58.8254 124.677 68.1845C123.607 77.5435 119.915 86.41 114.026 93.7625C110.151 98.5875 100.001 106.25 100.001 115.625V131.25C100.001 134.565 98.6843 137.745 96.3401 140.089C93.9959 142.433 90.8165 143.75 87.5013 143.75H62.5013C59.1861 143.75 56.0066 142.433 53.6624 140.089C51.3182 137.745 50.0013 134.565 50.0013 131.25V115.625C50.0013 106.25 39.845 98.5875 35.9638 93.75ZM81.2513 62.525H96.8763L68.7513 100.025V75.025H53.1263L81.2513 37.5V62.5313V62.525Z" fill="#FFE600"/>
</svg>
