<svg width="36" height="26" viewBox="0 0 36 26" fill="none" xmlns="http://www.w3.org/2000/svg">
<path d="M33.3125 0H2.5625C1.88288 0 1.2311 0.269977 0.750539 0.750539C0.269977 1.2311 0 1.88288 0 2.5625V23.0625C0 23.7421 0.269977 24.3939 0.750539 24.8745C1.2311 25.355 1.88288 25.625 2.5625 25.625H33.3125C33.9921 25.625 34.6439 25.355 35.1245 24.8745C35.605 24.3939 35.875 23.7421 35.875 23.0625V2.5625C35.875 1.88288 35.605 1.2311 35.1245 0.750539C34.6439 0.269977 33.9921 0 33.3125 0V0ZM30.4937 2.5625L17.9375 11.2494L5.38125 2.5625H30.4937ZM2.5625 23.0625V3.72844L17.2072 13.8631C17.4217 14.0119 17.6765 14.0916 17.9375 14.0916C18.1985 14.0916 18.4533 14.0119 18.6678 13.8631L33.3125 3.72844V23.0625H2.5625Z" fill="#FFE600"/>
</svg>
