<svg width="150" height="141" viewBox="0 0 150 141" fill="none" xmlns="http://www.w3.org/2000/svg">
<path d="M149.707 87.9782C149.902 89.6261 150 91.091 150 92.3727C150 93.6545 149.902 95.1193 149.707 96.7673H140.331C140.038 98.9645 139.598 101.162 139.012 103.359L147.656 106.792C146.777 109.447 145.605 112.148 144.14 114.895L135.35 111.461C134.276 113.384 132.957 115.261 131.394 117.092L137.987 123.272C136.034 125.561 133.836 127.621 131.394 129.452L124.802 123.272C122.849 124.737 120.846 125.973 118.795 126.98L122.458 135.082C119.528 136.547 116.647 137.691 113.814 138.515L110.152 130.413C107.808 130.962 105.464 131.374 103.12 131.649V140.438C101.362 140.621 99.7992 140.713 98.4319 140.713C97.0646 140.713 95.5019 140.621 93.7439 140.438V131.649C91.3999 131.374 89.0559 130.962 86.7119 130.413L83.1959 138.515C80.2659 137.691 77.3359 136.547 74.4059 135.082L78.0684 126.98C76.0174 125.973 74.064 124.737 72.2084 123.272L65.4693 129.452C63.0277 127.621 60.8302 125.561 58.8768 123.272L65.4693 117.092C64.0043 115.261 62.6858 113.384 61.5138 111.461L52.8703 114.895C51.3077 112.148 50.0868 109.447 49.2078 106.792L57.9978 103.359C57.3142 101.162 56.8258 98.9645 56.5328 96.7673H47.1568C46.9615 95.1193 46.8638 93.6545 46.8638 92.3727C46.8638 91.091 46.9615 89.6261 47.1568 87.9782H56.5328C56.8258 85.7809 57.3142 83.5836 57.9978 81.3864L49.2078 77.9531C50.0868 75.2981 51.3077 72.5973 52.8703 69.8507L61.5138 73.2839C62.6858 71.3613 64.0043 69.4845 65.4693 67.6534L58.8768 61.4736C60.8302 59.1848 63.0277 57.1248 65.4693 55.2938L72.2084 61.4736C74.064 60.0088 76.0174 58.7728 78.0684 57.7657L74.4059 49.526C77.3359 48.1527 80.2659 47.054 83.1959 46.2301L86.7119 54.3325C89.0559 53.6916 91.3999 53.2796 93.7439 53.0965V44.3074C95.5019 44.1243 97.0646 44.0328 98.4319 44.0328C99.7992 44.0328 101.362 44.1243 103.12 44.3074V53.0965C105.464 53.2796 107.808 53.6916 110.152 54.3325L113.814 46.2301C116.647 47.054 119.528 48.1527 122.458 49.526L118.795 57.7657C120.846 58.8644 122.849 60.1003 124.802 61.4736L131.394 55.2938C133.836 57.1248 136.034 59.1848 137.987 61.4736L131.394 67.6534C132.957 69.4845 134.276 71.3613 135.35 73.2839L144.14 69.8507C145.605 72.5973 146.777 75.2981 147.656 77.9531L139.012 81.3864C139.598 83.5836 140.038 85.7809 140.331 87.9782H149.707ZM98.4319 70.4C91.9859 70.4 86.4677 72.5515 81.8774 76.8545C77.287 81.1575 74.9919 86.3302 74.9919 92.3727C74.9919 98.4152 77.287 103.588 81.8774 107.891C86.4677 112.194 91.9859 114.345 98.4319 114.345C104.878 114.345 110.396 112.194 114.986 107.891C119.577 103.588 121.872 98.4152 121.872 92.3727C121.872 86.3302 119.577 81.1575 114.986 76.8545C110.396 72.5515 104.878 70.4 98.4319 70.4ZM65.4693 41.0115L63.7113 45.2687C63.4183 45.8181 62.9544 46.2301 62.3196 46.5047C61.6848 46.7794 61.0743 46.7794 60.4883 46.5047L52.1378 43.3461C50.4775 45.5434 48.4753 47.3745 46.1313 48.8393L49.6473 56.6671C49.9403 57.308 49.9403 57.903 49.6473 58.4524C49.3543 59.0017 48.9148 59.4137 48.3288 59.6883L43.7873 61.4736C43.2013 61.7483 42.5909 61.7483 41.9561 61.4736C41.3212 61.199 40.8573 60.787 40.5643 60.2376L37.0483 52.4099C35.4856 52.6845 34.0695 52.8219 32.7998 52.8219C31.6278 52.8219 30.2604 52.6845 28.6978 52.4099L25.1818 60.2376C24.9864 60.787 24.5714 61.199 23.9365 61.4736C23.3017 61.7483 22.6424 61.7483 21.9588 61.4736L17.5638 59.6883C16.8801 59.5052 16.4162 59.1161 16.172 58.521C15.9278 57.9259 15.9034 57.308 16.0988 56.6671L19.6148 48.9766C17.2708 47.4202 15.2686 45.5434 13.6082 43.3461L5.25773 46.642C4.67173 46.8251 4.06131 46.8023 3.42648 46.5734C2.79164 46.3445 2.32773 45.9554 2.03473 45.4061L0.276723 41.1489C-0.0162778 40.508 -0.0406945 39.89 0.203473 39.2949C0.44764 38.6998 0.911557 38.3107 1.59523 38.1276L9.79924 34.8317C9.50624 33.3669 9.35974 32.0394 9.35974 30.8492C9.35974 29.7505 9.50624 28.423 9.79924 26.8666L1.44872 23.708C0.862724 23.4334 0.44764 23.0214 0.203473 22.4721C-0.0406945 21.9228 -0.0651112 21.3277 0.130222 20.6868L2.03473 16.4296C2.32773 15.8803 2.76723 15.4683 3.35323 15.1936C3.93923 14.919 4.57406 14.919 5.25773 15.1936L13.6082 18.3522C15.1709 16.1549 17.1243 14.3239 19.4683 12.859L16.0988 5.03125C15.8058 4.39038 15.7813 3.79528 16.0255 3.24597C16.2697 2.69665 16.7336 2.28466 17.4173 2.01L21.9588 0.224721C22.5448 -0.0499379 23.1552 -0.0499379 23.79 0.224721C24.4249 0.499379 24.8888 0.911368 25.1818 1.46069L28.5513 9.28846C30.1139 9.0138 31.5301 8.87647 32.7998 8.87647C34.0695 8.87647 35.4856 9.0138 37.0483 9.28846L40.4178 1.46069C40.7108 0.819815 41.1747 0.384938 41.8096 0.156056C42.4444 -0.0728262 43.0548 -0.0499379 43.6408 0.224721L48.1823 2.01C48.866 2.19311 49.3299 2.58221 49.5741 3.1773C49.8182 3.7724 49.7938 4.3446 49.5008 4.89392L46.1313 12.7217C48.4753 14.2781 50.4775 16.1549 52.1378 18.3522L60.3418 15.0563C61.0255 14.8732 61.6848 14.8961 62.3196 15.125C62.9544 15.3538 63.3695 15.7429 63.5648 16.2923L65.4693 20.5495C65.7624 21.1903 65.7868 21.8083 65.5426 22.4034C65.2984 22.9985 64.8345 23.3876 64.1508 23.5707L55.8003 26.8666C56.0933 28.3315 56.2398 29.659 56.2398 30.8492C56.2398 32.0394 56.0933 33.3669 55.8003 34.8317L64.1508 37.9903C64.8345 38.2649 65.2984 38.6769 65.5426 39.2263C65.7868 39.7756 65.7624 40.3707 65.4693 41.0115ZM32.873 17.6656C29.0152 17.6656 25.6945 18.9473 22.911 21.5108C20.1275 24.0743 18.7358 27.1871 18.7358 30.8492C18.7358 34.5113 20.1275 37.6241 22.911 40.1876C25.6945 42.751 29.0152 44.0328 32.873 44.0328C36.7309 44.0328 40.0271 42.751 42.7618 40.1876C45.4965 37.6241 46.8638 34.5113 46.8638 30.8492C46.8638 27.1871 45.4965 24.0743 42.7618 21.5108C40.0271 18.9473 36.7309 17.6656 32.873 17.6656Z" fill="#FFE600"/>
</svg>
