<svg width="39" height="30" viewBox="0 0 39 30" fill="none" xmlns="http://www.w3.org/2000/svg">
<path d="M34.5313 7.47651C34.5567 7.80541 34.5567 8.13244 34.5567 8.45947C34.5567 18.4676 26.6196 30 12.1142 30C7.64533 30 3.49367 28.7577 0 26.6001C0.6345 26.6696 1.2455 26.694 1.90546 26.694C5.4559 26.7023 8.90581 25.5628 11.6991 23.4595C10.0529 23.4309 8.45721 22.9096 7.13467 21.9686C5.81214 21.0275 4.82883 19.7135 4.32204 18.2101C4.80967 18.2797 5.29925 18.3267 5.81233 18.3267C6.51929 18.3267 7.23017 18.2327 7.89012 18.0692C6.10365 17.723 4.49726 16.7937 3.34409 15.4392C2.19091 14.0847 1.56215 12.3888 1.56471 10.6396V10.5457C2.61633 11.1076 3.83637 11.4591 5.12887 11.5061C4.04609 10.8155 3.15824 9.8785 2.54454 8.77858C1.93084 7.67866 1.61036 6.45005 1.61171 5.20236C1.61171 3.79652 2.00142 2.50721 2.68487 1.38329C4.66698 3.72326 7.13911 5.63757 9.94116 7.00224C12.7432 8.36691 15.8127 9.15151 18.9508 9.30523C18.8294 8.74139 18.755 8.15687 18.755 7.57048C18.7544 6.57617 18.9581 5.59151 19.3544 4.6728C19.7506 3.75408 20.3316 2.91932 21.0642 2.21624C21.7968 1.51316 22.6666 0.955541 23.6238 0.575263C24.5811 0.194986 25.6071 -0.000493132 26.6431 9.34212e-07C28.9148 9.34212e-07 30.9652 0.91342 32.4065 2.39068C34.1725 2.06293 35.866 1.44422 37.412 0.56196C36.8233 2.31139 35.5903 3.79483 33.9438 4.73437C35.51 4.56292 37.0408 4.16762 38.4852 3.56158C37.4064 5.07098 36.0696 6.39458 34.5313 7.47651Z" fill="#FFE600"/>
</svg>
