<?xml version="1.0" standalone="no"?>
<!DOCTYPE svg PUBLIC "-//W3C//DTD SVG 20010904//EN"
 "http://www.w3.org/TR/2001/REC-SVG-20010904/DTD/svg10.dtd">
<svg version="1.0" xmlns="http://www.w3.org/2000/svg"
 width="1280.000000pt" height="600.000000pt" viewBox="0 0 1280.000000 600.000000"
 preserveAspectRatio="xMidYMid meet">
<metadata>
Created by potrace 1.16, written by Peter Selinger 2001-2019
</metadata>
<g transform="translate(0.000000,600.000000) scale(0.100000,-0.100000)"
fill="#000000" stroke="none">
<path d="M4070 5998 c0 -2 15 -46 32 -98 30 -88 32 -105 32 -237 1 -78 4 -145
9 -149 4 -4 7 -16 7 -26 0 -10 5 -18 11 -18 7 0 8 -11 4 -32 -6 -26 -5 -30 9
-25 14 6 15 3 6 -13 -9 -16 -8 -21 5 -25 50 -16 50 -16 36 -24 -9 -6 1 -13 33
-24 l46 -16 26 51 c19 38 24 59 19 85 -8 44 3 61 22 34 8 -12 20 -21 28 -21 7
0 17 -9 20 -20 3 -11 13 -20 21 -20 8 0 14 -5 14 -11 0 -5 -10 -9 -22 -7 -17
2 -23 -2 -23 -17 0 -11 -6 -24 -13 -28 -11 -7 -10 -13 4 -28 10 -11 12 -19 6
-19 -7 0 -12 -15 -12 -35 0 -49 59 -110 118 -120 41 -7 71 -35 63 -60 -1 -5
-4 -19 -5 -30 -1 -12 -5 -25 -8 -31 -4 -5 -2 -31 4 -57 8 -37 15 -48 34 -53
13 -3 24 -11 24 -16 0 -6 6 -8 14 -5 7 3 23 -5 35 -19 24 -28 67 -34 57 -8 -5
14 1 15 42 9 48 -6 49 -6 76 33 34 50 43 101 23 133 -18 29 -31 85 -28 121 1
14 -9 49 -23 77 -26 50 -36 131 -16 131 6 0 10 7 10 15 0 27 50 14 93 -23 10
-9 37 -18 60 -19 23 -2 55 -7 71 -13 43 -15 96 -12 102 4 8 20 34 8 34 -14 0
-18 37 -50 72 -63 9 -3 30 -25 45 -49 15 -24 32 -47 38 -51 7 -6 6 -10 -2 -14
-21 -8 -15 -38 12 -63 22 -21 25 -31 22 -70 -3 -40 -7 -47 -38 -62 -19 -10
-42 -18 -52 -18 -15 0 -16 3 -7 21 7 11 9 23 6 26 -9 10 -26 -8 -44 -50 -25
-54 -124 -163 -171 -187 -21 -10 -43 -26 -50 -34 -8 -9 -29 -16 -50 -16 -46
-1 -71 -20 -71 -54 0 -19 -5 -26 -16 -24 -23 4 -42 -51 -23 -63 11 -7 10 -9
-3 -9 -22 0 -23 -19 -2 -27 14 -5 13 -8 -7 -19 -23 -12 -23 -12 15 -28 l37
-16 -3 -67 c-1 -38 1 -78 5 -90 6 -18 5 -23 -7 -23 -18 0 -21 -21 -6 -36 5 -5
10 -52 11 -104 1 -84 4 -99 25 -125 23 -28 24 -29 41 -12 17 17 17 19 0 48
-23 40 -23 63 1 54 9 -3 29 -9 45 -12 22 -4 27 -2 27 14 0 10 -6 28 -14 38
-21 29 -8 54 32 61 45 9 177 -28 210 -58 23 -23 29 -57 12 -74 -7 -7 -5 -23 6
-49 l16 -39 -36 -29 c-35 -28 -35 -29 -21 -58 9 -16 17 -29 19 -29 2 0 27 29
55 65 60 77 86 83 132 34 32 -35 36 -63 14 -124 -8 -21 -13 -40 -12 -40 1 -1
14 -6 28 -12 21 -9 42 -8 98 7 40 10 73 14 77 9 3 -5 15 -9 28 -9 12 0 33 -11
46 -25 13 -14 30 -25 38 -25 8 0 45 23 83 51 59 43 71 49 89 39 17 -9 27 -7
55 10 38 23 44 37 20 46 -9 4 -15 11 -14 18 2 6 -1 27 -5 46 -9 45 14 101 51
128 16 11 55 33 89 50 47 24 64 28 73 19 10 -9 14 -8 22 5 5 10 26 20 47 23
68 12 73 15 62 35 -14 26 -13 28 21 35 22 5 36 3 47 -9 15 -15 15 -16 0 -16
-29 0 -40 -73 -12 -84 49 -19 91 7 64 39 -13 16 -7 45 10 45 6 0 8 -10 5 -23
-8 -28 12 -47 52 -50 15 -1 36 -12 45 -23 10 -12 40 -27 67 -34 39 -9 51 -17
53 -33 2 -17 11 -23 36 -25 17 -2 32 -7 32 -12 0 -18 39 -31 60 -20 16 8 26 5
55 -21 19 -17 35 -40 35 -50 0 -10 3 -19 8 -19 11 0 69 -101 78 -134 6 -26 9
-28 45 -22 36 6 63 -7 37 -17 -10 -4 -9 -8 2 -16 10 -7 20 -5 33 7 14 12 22
14 35 5 9 -6 16 -17 14 -25 -1 -9 18 -24 48 -38 33 -16 50 -30 50 -42 0 -10
25 -46 56 -79 31 -34 64 -80 75 -104 19 -44 23 -125 7 -158 -7 -14 0 -28 32
-65 23 -26 54 -52 68 -58 24 -10 32 -7 67 22 22 18 53 38 69 44 25 9 28 14 22
43 -4 17 -11 34 -16 35 -6 2 -10 36 -10 75 0 86 -19 142 -73 217 -22 30 -34
49 -26 43 19 -19 39 -16 39 5 0 11 -21 31 -55 51 -30 18 -55 39 -55 45 0 7
-13 25 -30 41 -16 16 -30 38 -30 49 -1 12 -7 32 -14 45 -18 32 -10 51 21 51
20 0 24 3 18 18 -16 34 -18 84 -4 92 9 6 5 15 -17 33 -17 14 -44 47 -60 74
l-30 48 58 -3 c53 -3 58 -2 58 17 0 12 4 21 9 21 13 0 32 -26 24 -33 -3 -4 1
-7 10 -7 9 0 17 -6 17 -13 0 -7 19 -21 43 -32 38 -18 42 -23 39 -52 -1 -25 4
-36 24 -49 15 -10 29 -13 32 -8 12 15 56 10 70 -9 7 -9 39 -35 71 -56 32 -22
66 -52 75 -66 17 -26 17 -28 -5 -51 -12 -13 -31 -24 -41 -24 -26 0 -22 -17 6
-24 13 -3 39 -25 57 -47 18 -23 51 -50 74 -60 23 -10 50 -27 60 -39 10 -11 28
-20 39 -20 12 0 32 -7 44 -16 13 -9 26 -13 29 -10 3 3 46 -15 95 -41 95 -50
118 -76 118 -132 0 -42 37 -114 69 -135 36 -25 88 -99 73 -104 -7 -2 -12 -12
-12 -22 0 -10 -5 -22 -11 -26 -7 -4 -9 -24 -6 -53 3 -25 1 -54 -5 -65 -8 -14
-7 -21 5 -27 8 -5 20 -22 27 -39 7 -16 14 -30 16 -30 2 0 28 12 58 27 48 23
57 25 83 14 15 -7 50 -40 76 -72 38 -47 53 -59 68 -54 14 5 27 -2 45 -25 29
-34 99 -74 114 -65 6 3 10 16 10 28 1 19 3 18 17 -8 22 -41 21 -41 43 -17 25
27 33 28 25 3 -3 -10 -3 -25 1 -34 5 -13 9 -14 25 -4 10 6 19 17 19 24 0 16 5
16 31 1 17 -11 22 -10 30 4 5 10 16 15 24 12 9 -4 15 0 15 10 0 9 7 16 15 16
8 0 15 7 15 15 0 9 6 18 14 21 8 3 16 18 19 34 7 35 35 42 60 17 19 -19 32
-19 94 -1 34 10 49 -31 29 -79 -15 -36 -16 -37 -59 -31 -40 6 -46 4 -52 -15
-8 -25 -12 -25 -58 -6 -41 17 -61 19 -53 6 3 -4 -5 -18 -18 -30 l-24 -22 30
-117 c18 -71 36 -122 46 -130 47 -35 72 -58 72 -67 0 -6 16 -26 35 -45 31 -30
43 -35 99 -38 57 -4 65 -2 75 16 6 11 8 28 5 36 -4 9 -1 16 6 16 8 0 10 10 6
34 -6 29 -3 37 20 55 23 18 26 26 21 61 -3 23 2 61 11 93 23 72 18 167 -9 174
-23 6 -24 16 -5 32 8 7 18 37 22 67 5 43 10 54 21 49 22 -8 43 13 43 44 0 38
-10 47 -56 53 -48 7 -70 -7 -86 -52 -9 -27 -13 -31 -22 -18 -6 8 -25 22 -43
32 -18 9 -45 32 -60 51 -15 19 -35 35 -43 35 -9 0 -20 4 -25 8 -6 5 -29 16
-52 25 -38 15 -44 15 -55 1 -7 -8 -21 -23 -30 -32 -10 -9 -18 -21 -18 -27 -1
-23 -38 -54 -59 -48 -25 6 -26 12 -6 49 13 26 13 30 -7 51 -24 26 -26 58 -6
99 14 29 15 29 89 26 58 -2 79 0 88 12 10 12 10 19 -3 37 -14 21 -13 25 15 60
l30 38 -56 17 c-30 10 -55 21 -55 26 0 4 -6 8 -14 8 -8 0 -21 8 -28 18 -15 21
-78 46 -78 31 0 -11 77 -89 88 -89 4 0 13 -9 20 -20 9 -15 9 -25 0 -45 -10
-22 -13 -23 -27 -11 -9 7 -34 23 -57 34 -37 19 -44 29 -85 127 -42 101 -46
106 -82 116 -28 7 -44 21 -64 52 -31 50 -39 56 -64 50 -20 -6 -25 12 -10 36 6
9 5 21 -2 32 -14 22 4 83 35 122 23 28 23 28 67 12 32 -11 47 -12 57 -4 16 13
97 2 138 -18 38 -20 85 -10 111 24 20 24 23 25 59 13 31 -10 40 -10 47 1 6 11
12 9 28 -5 21 -19 21 -19 21 17 0 25 -5 37 -14 37 -8 0 -16 10 -18 22 -2 16
-12 24 -36 29 -18 4 -41 14 -52 24 -11 10 -26 14 -38 11 -12 -4 -25 1 -37 14
-10 11 -24 20 -31 20 -17 0 -84 67 -84 84 0 12 -30 46 -41 46 -2 0 -4 -16 -5
-35 -1 -42 -9 -53 -32 -39 -9 6 -33 9 -53 6 -21 -2 -40 1 -43 7 -4 7 1 11 14
11 28 0 80 40 80 62 0 9 -9 22 -21 28 -17 9 -24 8 -38 -9 -13 -15 -21 -17 -29
-9 -10 10 -12 8 -25 -54 -1 -4 -15 -1 -31 7 -35 18 -36 18 -36 0 0 -19 -19
-19 -26 0 -4 8 -10 12 -15 9 -5 -3 -9 0 -9 6 0 10 -57 50 -72 50 -5 0 -8 -13
-8 -30 0 -16 -4 -30 -9 -30 -18 0 -33 30 -27 55 4 14 3 25 -2 25 -5 0 -14 16
-22 35 -12 31 -15 33 -30 20 -21 -19 -30 -19 -30 0 0 8 8 15 17 15 13 0 14 3
5 12 -7 7 -12 21 -12 32 0 12 -17 36 -37 54 -42 35 -48 38 -59 20 -5 -7 8 -25
31 -45 l38 -33 -27 0 c-19 0 -25 -4 -20 -12 4 -7 -2 -5 -13 5 -20 17 -53 23
-53 9 0 -4 7 -18 16 -30 15 -22 14 -22 -23 -22 -34 -1 -36 -2 -20 -14 15 -12
16 -14 2 -20 -23 -8 -19 -53 5 -61 11 -3 20 -10 20 -15 0 -4 14 -17 31 -27 26
-17 28 -21 14 -33 -13 -11 -12 -18 16 -66 32 -57 32 -60 -12 -111 -40 -47 -79
-63 -155 -63 -58 0 -74 4 -116 31 -26 17 -48 34 -48 38 0 4 5 33 11 63 9 43
16 58 32 62 18 4 19 10 13 78 -4 40 -13 75 -19 77 -37 13 -78 101 -47 101 6 0
10 11 10 23 0 27 -28 57 -53 57 -9 0 -32 21 -52 48 -20 26 -45 50 -56 54 -10
4 -19 16 -19 26 0 32 -73 93 -119 99 -30 4 -41 10 -41 23 0 21 -44 42 -74 34
-16 -4 -25 0 -29 10 -4 10 -18 16 -37 16 -33 0 -35 -5 -19 -46 l10 -28 -21 19
c-18 16 -23 17 -30 5 -6 -8 -10 -19 -10 -23 0 -4 -9 -3 -20 3 -11 6 -19 15
-17 21 1 6 -23 20 -53 30 -66 23 -132 20 -163 -8 -12 -11 -28 -18 -34 -16 -8
3 -13 -4 -13 -16 0 -14 -6 -21 -20 -21 -12 0 -20 -7 -20 -16 0 -9 -8 -22 -17
-29 -14 -11 -15 -16 -5 -28 11 -13 10 -15 -5 -11 -29 8 -45 -39 -31 -94 9 -36
8 -46 -3 -53 -22 -14 -29 -11 -29 13 0 17 -3 19 -12 10 -20 -20 -40 -14 -37
11 2 12 0 27 -4 34 -4 7 -2 33 4 58 13 51 10 60 -20 50 -16 -5 -21 -15 -21
-40 0 -26 -4 -33 -15 -29 -8 4 -27 -6 -43 -23 -16 -16 -34 -27 -41 -25 -19 6
-12 -33 12 -68 12 -19 46 -48 76 -65 29 -17 58 -39 63 -48 5 -9 19 -17 31 -17
22 -1 22 -1 2 -16 -12 -9 -19 -24 -17 -36 3 -14 -1 -19 -10 -16 -7 3 -39 14
-70 23 -31 10 -55 21 -53 25 12 20 -88 125 -185 196 -58 42 -117 88 -133 102
-30 29 -46 22 -50 -20 -2 -32 77 -133 111 -142 12 -4 39 -21 60 -40 55 -49
150 -106 166 -100 10 4 16 -4 21 -24 4 -21 16 -34 36 -42 36 -15 39 -57 4 -52
-11 2 -50 7 -87 12 -107 14 -245 80 -363 174 -118 94 -185 156 -185 172 0 6 7
17 15 24 21 18 19 77 -5 107 -11 14 -20 40 -20 57 0 22 -11 42 -44 76 -43 45
-43 46 -79 213 -35 168 -38 219 -11 196 10 -8 22 -4 48 16 28 21 42 25 66 20
16 -4 30 -3 30 2 0 5 -38 46 -85 93 -70 70 -83 88 -78 108 4 15 -1 30 -15 45
-11 12 -25 47 -31 77 -7 32 -28 80 -51 115 -31 47 -43 80 -56 145 -16 87 -35
123 -60 113 -7 -2 -24 7 -37 21 l-24 26 -927 0 c-509 0 -926 -1 -926 -2z"/>
<path d="M6620 5750 c-14 -4 -40 -15 -58 -24 -17 -9 -32 -12 -32 -6 0 5 -9 10
-20 10 -13 0 -20 -7 -20 -20 0 -11 -6 -23 -14 -26 -16 -6 -41 -97 -32 -113 4
-6 15 -7 30 -1 22 8 24 5 42 -53 10 -33 29 -73 42 -89 22 -26 65 -138 56 -147
-2 -2 -10 2 -19 9 -13 11 -15 6 -15 -43 0 -88 31 -107 100 -61 63 42 84 83 76
152 -7 62 -24 112 -36 112 -17 0 -40 32 -40 55 0 17 9 29 30 40 25 13 30 22
30 50 0 19 -4 35 -10 35 -5 0 -10 5 -10 10 0 20 31 9 42 -15 22 -48 34 -28 22
34 -5 24 -12 31 -29 31 -15 0 -22 6 -21 17 1 22 -79 53 -114 43z"/>
<path d="M6920 5455 c-23 -8 -43 -9 -59 -3 -30 11 -34 7 -26 -25 5 -20 24 -33
90 -62 57 -26 86 -45 94 -62 16 -36 31 -19 31 38 0 43 -3 49 -21 49 -34 0 -61
19 -54 39 9 29 -15 40 -55 26z"/>
<path d="M9602 4416 c-18 -27 -27 -32 -51 -28 l-29 4 4 -79 c2 -43 4 -91 3
-108 -3 -170 -5 -182 -28 -238 -20 -47 -33 -62 -70 -84 -25 -14 -48 -27 -50
-29 -2 -2 8 -19 22 -37 18 -24 23 -37 15 -45 -7 -7 3 -12 33 -17 30 -5 56 -20
88 -50 51 -47 85 -68 95 -58 3 3 6 19 6 34 0 23 8 32 40 49 50 26 90 19 90
-16 0 -16 6 -24 18 -24 19 0 22 10 25 83 2 41 25 76 38 56 6 -10 59 8 59 20 0
3 -9 21 -20 39 -21 33 -19 72 2 72 6 0 8 9 5 20 -3 12 1 24 11 29 14 8 15 14
6 28 -7 11 -8 27 -3 40 5 13 4 25 -2 28 -5 4 -7 11 -3 16 8 14 -23 46 -52 53
-18 5 -24 13 -24 34 0 31 -30 74 -54 78 -18 3 -20 -5 -6 -40 8 -23 7 -24 -13
-17 -17 6 -24 20 -30 57 -6 34 -21 65 -49 102 -23 29 -44 54 -47 57 -4 2 -17
-11 -29 -29z"/>
<path d="M4170 4115 c-9 -11 -8 -19 4 -37 9 -12 16 -33 16 -45 0 -16 15 -33
52 -58 29 -19 60 -35 69 -35 9 0 24 -9 34 -20 10 -11 26 -20 35 -20 10 0 20
-10 24 -24 5 -22 8 -23 31 -13 14 7 25 17 25 22 0 18 -17 36 -30 33 -7 -2 -15
3 -17 10 -3 7 4 12 17 12 26 0 26 1 -25 73 -29 41 -45 55 -57 51 -10 -3 -36 7
-60 24 -53 36 -102 47 -118 27z"/>
<path d="M6524 3722 c-5 -4 -9 -18 -9 -32 -1 -14 -15 -50 -33 -81 -27 -48 -31
-61 -22 -84 5 -14 10 -46 10 -71 0 -64 37 -116 103 -144 29 -12 66 -36 82 -54
17 -20 44 -36 62 -40 29 -5 35 -2 48 24 8 16 15 42 15 57 0 22 15 41 67 89
l68 61 -26 34 c-21 29 -24 38 -15 62 9 25 7 31 -19 52 -19 14 -34 20 -39 14
-16 -15 -23 -11 -30 16 -4 14 -14 25 -23 25 -9 0 -13 3 -10 7 8 7 -21 43 -35
43 -4 0 -8 -7 -8 -15 0 -18 -16 -19 -59 -4 -23 8 -36 8 -43 1 -12 -12 -38 -5
-38 12 0 15 -34 36 -46 28z"/>
<path d="M4595 3663 c-63 -14 -89 -28 -115 -64 -32 -44 -30 -60 8 -106 35 -43
95 -51 100 -15 5 30 42 48 70 33 13 -7 22 -24 25 -53 14 -111 30 -158 54 -158
7 0 13 -11 13 -25 0 -22 4 -25 38 -25 25 0 45 -7 56 -19 9 -10 30 -21 46 -25
48 -9 144 -167 179 -295 11 -39 23 -75 26 -81 4 -6 -1 -31 -11 -55 -16 -42
-16 -47 0 -63 11 -13 16 -37 16 -74 l0 -56 45 -11 c32 -8 48 -18 54 -34 5 -12
26 -42 46 -67 48 -57 58 -85 43 -113 -23 -42 -10 -76 69 -179 79 -103 112
-130 136 -110 17 15 31 4 45 -35 10 -30 9 -33 -8 -33 -26 0 -33 -15 -15 -30 8
-7 15 -21 15 -31 0 -16 8 -19 59 -19 49 0 65 -4 89 -25 l30 -25 26 55 c19 41
30 55 46 55 30 0 60 18 60 35 0 21 19 19 27 -2 7 -20 22 -33 39 -33 8 0 9 13
3 43 -4 23 -8 45 -9 50 0 4 21 7 47 7 l47 0 -26 28 c-41 43 -44 69 -13 102 21
22 26 35 21 54 -5 20 -3 26 10 26 31 0 77 44 102 99 39 82 36 105 -20 186 -45
67 -47 73 -37 108 9 35 11 63 9 225 -1 82 11 109 60 138 42 26 41 62 -5 91
-28 19 -39 21 -61 12 -41 -15 -50 -6 -57 57 -6 61 -16 74 -59 74 -22 0 -36 13
-79 74 -31 44 -63 80 -80 86 -23 10 -58 46 -106 109 -2 3 -9 -4 -17 -14 -11
-16 -28 -19 -97 -20 -83 -2 -84 -1 -134 37 -27 22 -55 50 -62 63 -13 24 -69
41 -87 26 -6 -5 -51 -20 -100 -32 -80 -20 -94 -21 -135 -9 -50 14 -130 26
-261 38 -47 4 -95 13 -107 20 -22 12 -25 13 -58 5z"/>
<path d="M9238 3318 c8 -34 43 -59 75 -55 15 2 27 0 27 -5 0 -4 11 -10 25 -14
31 -8 85 13 85 32 0 8 9 14 20 14 34 0 22 16 -22 31 -33 11 -42 11 -46 1 -3
-10 -9 -9 -23 4 -14 12 -22 14 -32 6 -8 -7 -18 -7 -27 -2 -8 6 -31 10 -52 10
-33 0 -36 -2 -30 -22z"/>
<path d="M8001 3146 c-13 -13 -34 -27 -47 -30 -29 -8 -31 -22 -4 -36 16 -9 18
-15 10 -30 -5 -10 -10 -31 -10 -45 0 -21 4 -26 16 -21 11 4 22 -1 30 -12 9
-13 31 -22 64 -26 42 -6 52 -11 60 -31 5 -14 14 -25 19 -25 5 0 13 -9 16 -21
4 -11 20 -28 36 -38 16 -10 26 -21 23 -24 -4 -4 2 -10 12 -13 10 -4 33 -22 50
-41 23 -24 40 -33 63 -33 28 0 36 -8 78 -72 57 -91 82 -118 105 -118 10 0 18
3 18 7 0 3 -25 39 -55 80 -60 80 -71 100 -80 154 -6 39 -25 52 -95 64 -33 6
-41 17 -125 156 -66 109 -95 149 -109 149 -11 0 -27 7 -36 15 -15 13 -19 12
-39 -9z"/>
<path d="M8837 2529 c-10 -6 -17 -20 -16 -32 2 -35 -1 -43 -11 -27 -8 12 -10
12 -16 -3 -7 -19 22 -71 35 -63 4 3 14 -14 21 -37 7 -23 28 -59 46 -80 19 -20
34 -44 34 -53 0 -32 130 -191 148 -180 13 8 22 46 11 46 -5 0 -9 11 -9 24 0
14 -4 28 -10 31 -5 3 -10 26 -10 51 0 24 -11 70 -24 102 -13 31 -27 72 -31 90
-4 18 -13 32 -21 32 -8 0 -14 4 -14 9 0 5 -10 13 -22 17 -13 4 -39 24 -58 45
-29 31 -38 36 -53 28z"/>
<path d="M6860 2498 c0 -20 -55 -58 -82 -58 -30 0 -67 -26 -77 -53 -5 -12 -2
-40 6 -66 7 -24 13 -57 13 -72 0 -45 -30 -97 -62 -108 -28 -10 -51 -49 -46
-80 1 -9 -1 -22 -5 -29 -13 -20 2 -50 28 -56 14 -4 25 -13 25 -21 0 -8 6 -15
13 -15 7 0 21 -6 31 -13 15 -11 16 -17 5 -40 -16 -36 -25 -34 -34 6 -6 28 -8
30 -15 12 -13 -31 -11 -82 3 -97 7 -7 25 -30 38 -50 28 -41 39 -40 39 1 0 34
26 72 44 65 24 -9 28 14 6 36 -26 26 -26 34 10 96 24 43 32 76 46 181 12 92
22 136 36 156 20 28 21 58 2 131 -6 27 -5 29 20 24 29 -6 34 8 14 34 -18 23
-58 33 -58 16z"/>
<path d="M10660 2463 c0 -4 7 -29 14 -55 13 -41 13 -47 -1 -52 -28 -11 -43 -6
-43 15 0 16 -4 19 -17 14 -38 -16 -54 -17 -84 -6 -36 13 -47 8 -30 -12 14 -18
5 -45 -17 -49 -10 -2 -29 1 -43 6 -20 7 -38 5 -71 -7 -47 -18 -119 -21 -208
-7 -31 4 -59 4 -64 -1 -15 -14 -54 -11 -86 6 -29 15 -30 15 -30 -5 0 -12 -5
-18 -10 -15 -7 4 -7 13 0 26 6 10 7 19 2 19 -4 0 -19 10 -32 22 -21 20 -24 20
-35 5 -15 -21 -25 -12 -25 24 0 17 -8 32 -25 43 -13 9 -26 16 -27 16 -2 0 -3
-23 -3 -51 0 -65 -16 -75 -57 -37 -16 15 -34 28 -39 28 -16 0 -39 -56 -27 -68
5 -5 14 -31 19 -57 5 -25 17 -57 28 -71 10 -13 22 -40 25 -59 4 -19 11 -35 16
-35 5 0 7 -7 3 -15 -3 -9 11 -63 32 -121 32 -88 43 -109 74 -132 20 -15 38
-31 40 -37 2 -5 27 -33 54 -62 47 -50 53 -53 99 -53 27 0 63 -6 81 -14 45 -19
103 -80 110 -115 4 -20 14 -31 31 -35 22 -5 24 -9 16 -37 l-9 -31 39 6 c39 6
56 -6 25 -18 -28 -10 -15 -31 36 -59 28 -16 53 -36 56 -45 4 -10 12 -24 20
-32 7 -8 22 -26 32 -40 l19 -24 61 26 c51 22 66 25 87 16 37 -17 31 -51 -17
-89 -38 -30 -40 -34 -34 -69 4 -24 2 -41 -5 -45 -6 -4 -15 -18 -20 -31 -8 -21
-13 -23 -60 -17 -46 5 -50 4 -50 -16 0 -11 5 -21 11 -21 5 0 7 -5 3 -12 -5 -7
-11 -5 -21 8 -11 15 -15 16 -22 5 -7 -11 -10 -9 -16 8 -4 13 -1 28 6 37 15 19
-2 34 -38 34 -24 0 -30 19 -12 37 7 7 2 15 -15 27 -17 11 -23 21 -19 33 5 12
2 15 -10 10 -16 -6 -16 -5 0 20 16 24 16 26 -2 39 -29 21 -38 17 -33 -15 2
-17 1 -28 -4 -25 -4 3 -8 12 -8 20 0 8 -7 14 -15 14 -10 0 -14 -12 -13 -45 0
-25 4 -45 9 -45 5 0 9 -9 9 -20 0 -12 5 -17 13 -14 7 2 24 -7 37 -21 19 -20
20 -25 6 -19 -15 6 -17 2 -14 -22 2 -21 9 -30 26 -32 12 -2 20 -8 16 -13 -8
-14 15 -39 37 -39 16 0 17 -4 7 -30 -13 -39 5 -64 40 -57 32 6 132 -24 132
-39 0 -7 7 -14 15 -18 20 -7 19 -26 -1 -26 -9 0 -18 9 -21 20 -6 21 -18 26
-27 12 -6 -10 -63 -8 -88 2 -9 4 -29 6 -44 4 -23 -2 -30 -10 -37 -38 -6 -27
-22 -45 -68 -78 -70 -51 -121 -69 -156 -53 -13 6 -34 11 -47 11 -34 0 -55 30
-67 97 -10 57 -13 62 -49 78 -51 23 -73 15 -60 -21 14 -37 5 -42 -14 -7 -8 15
-53 66 -100 112 -84 84 -86 85 -106 66 -12 -10 -20 -31 -20 -48 0 -40 31 -138
46 -144 7 -2 10 -12 7 -23 -3 -10 0 -21 6 -24 6 -4 11 -25 11 -48 0 -31 4 -41
19 -45 21 -5 28 -29 40 -144 5 -42 12 -86 16 -98 4 -14 -1 -31 -14 -50 -27
-37 -26 -47 4 -67 31 -20 33 -59 5 -115 -23 -45 -20 -59 16 -59 16 0 24 6 24
18 0 14 2 15 10 2 5 -8 6 -26 3 -39 -5 -19 -3 -23 10 -18 8 3 23 -3 33 -14 9
-10 29 -19 45 -19 22 0 32 9 54 45 22 38 25 50 16 79 -7 28 -6 37 7 49 36 31
43 29 97 -22 30 -28 58 -51 62 -51 5 0 15 -17 22 -38 8 -20 27 -56 43 -79 l29
-43 174 0 175 0 0 23 c0 13 9 50 20 82 27 79 28 220 1 298 -15 43 -18 64 -10
89 5 21 5 36 -1 42 -6 6 -10 20 -10 33 0 15 -6 23 -16 23 -9 0 -23 8 -30 18
-16 20 -19 108 -4 117 6 3 11 18 11 33 1 27 1 27 8 -3 5 -20 3 -36 -6 -46 -7
-8 -13 -31 -13 -51 0 -44 33 -64 77 -47 30 12 103 14 134 4 27 -9 79 -116 86
-177 10 -81 46 -102 77 -43 20 37 45 45 66 20 7 -8 25 -15 41 -15 15 0 31 -4
34 -10 3 -5 17 -10 31 -10 15 0 24 -6 24 -15 0 -19 5 -19 41 2 16 10 29 24 29
32 0 11 5 10 23 -5 56 -50 55 -50 68 0 9 35 16 46 31 46 11 0 16 -5 13 -11 -4
-6 1 -16 11 -24 16 -11 26 -10 69 6 60 23 55 22 55 4 0 -9 9 -15 22 -15 21 0
21 0 2 -21 -16 -17 -16 -22 -4 -29 8 -6 18 -10 21 -10 4 0 12 -13 19 -30 8
-18 24 -34 44 -41 17 -6 48 -33 69 -60 21 -27 45 -49 53 -49 8 0 14 2 14 5 0
3 -26 40 -57 82 -32 42 -82 119 -113 171 -45 78 -64 101 -101 123 -31 18 -51
24 -60 18 -11 -7 -9 -13 10 -28 l24 -18 -29 -6 c-39 -7 -78 9 -70 29 3 9 6 24
6 34 0 11 20 31 48 49 36 23 52 41 60 68 12 40 9 53 -14 53 -8 0 -20 12 -26
26 -8 17 -18 24 -29 21 -14 -4 -21 4 -29 29 -8 23 -20 36 -36 40 -19 5 -22 9
-13 20 15 18 4 45 -30 78 -25 24 -28 34 -24 62 5 30 3 34 -17 34 -19 0 -21 4
-15 23 4 12 8 32 9 44 1 16 6 21 18 17 26 -8 29 9 12 72 -18 69 -20 72 -44 57
-14 -10 -19 -9 -24 3 -6 16 17 30 32 20 6 -3 15 1 22 9 16 20 -2 65 -25 65
-13 0 -15 7 -10 33 5 24 2 37 -9 46 -19 16 -21 63 -4 94 6 12 34 48 61 80 l51
58 -22 15 c-13 9 -21 23 -20 32 2 12 -5 18 -24 20 -33 4 -37 27 -7 42 12 7 18
18 15 26 -4 10 3 14 24 14 25 0 30 4 30 24 0 13 -7 29 -15 36 -8 7 -15 10 -15
6 0 -3 -8 2 -19 12 -10 9 -18 19 -17 22 2 10 -30 47 -50 58 -16 9 -26 8 -42
-4 -30 -21 -49 -8 -26 17 16 18 16 19 -9 19 -15 0 -27 -4 -27 -10 0 -5 -5 -10
-11 -10 -6 0 -8 9 -4 21 7 20 6 20 -24 5 -41 -22 -52 -20 -18 3 l29 18 -26 7
c-29 7 -34 23 -11 32 8 4 12 10 9 16 -3 5 6 20 20 33 l26 24 -30 16 c-22 11
-30 23 -30 41 0 17 -7 28 -19 31 -11 3 -18 10 -15 16 2 7 -34 40 -80 75 -74
56 -87 62 -106 52 -16 -9 -25 -9 -35 0 -8 6 -23 9 -34 5 -28 -8 -81 21 -81 45
0 11 -9 24 -20 30 -11 6 -20 7 -20 3z"/>
<path d="M7070 2414 c-6 -18 -18 -34 -25 -34 -10 0 -13 -10 -11 -37 9 -84 54
-126 96 -88 23 21 26 67 5 85 -7 6 -17 31 -21 55 -8 56 -29 65 -44 19z"/>
<path d="M8345 2343 c11 -121 16 -141 33 -145 23 -6 25 -46 6 -77 -9 -13 -14
-34 -11 -47 3 -16 -6 -41 -25 -70 -18 -29 -27 -53 -23 -65 4 -11 2 -19 -5 -19
-8 0 -8 -6 1 -21 l11 -21 23 22 c23 22 23 22 34 2 7 -13 8 -23 1 -27 -5 -3 -7
-19 -3 -36 5 -27 2 -31 -35 -47 -38 -16 -41 -20 -47 -69 -3 -29 -11 -55 -16
-58 -5 -4 -9 -16 -9 -28 0 -13 -6 -31 -13 -42 -53 -79 -57 -90 -41 -113 15
-22 16 -22 106 55 54 47 97 92 105 111 14 33 58 82 74 82 4 0 28 31 52 68 37
57 50 70 85 80 23 7 52 10 64 7 27 -7 133 -161 118 -170 -18 -11 -10 -23 20
-30 17 -4 30 -11 30 -15 0 -5 27 -28 61 -51 56 -37 59 -42 45 -58 -24 -27 -9
-59 33 -70 20 -5 62 -17 95 -25 34 -8 70 -26 86 -41 14 -14 29 -22 33 -19 10
11 136 -105 160 -147 12 -22 30 -39 40 -39 19 0 20 9 8 62 -6 23 -5 54 1 78 9
36 7 48 -18 105 -16 35 -34 65 -40 65 -11 0 -34 42 -34 60 0 23 21 7 40 -30
19 -37 40 -46 40 -18 0 6 -40 68 -89 138 -50 70 -97 145 -106 168 -19 46 -44
61 -61 37 -11 -15 -14 -14 -29 9 -9 14 -26 28 -36 31 -24 8 -52 -13 -45 -32
12 -29 -4 -9 -58 76 -53 83 -82 111 -105 97 -5 -3 -15 1 -22 10 -9 11 -22 14
-43 10 -29 -6 -29 -6 -11 9 20 15 20 15 -6 38 -14 13 -31 37 -36 53 -6 19 -17
29 -30 30 -11 1 -44 19 -74 41 -30 22 -66 43 -81 47 -29 7 -78 -11 -78 -28 -1
-12 -30 23 -30 36 0 4 12 8 27 8 16 0 23 4 18 9 -12 10 -175 81 -188 81 -5 0
-6 -29 -2 -67z"/>
<path d="M7355 2269 c-72 -17 -106 -75 -71 -122 7 -9 40 -28 72 -41 47 -19 63
-31 76 -59 11 -22 28 -39 48 -46 17 -6 40 -21 50 -33 16 -19 19 -20 20 -6 0 9
15 29 34 43 27 20 36 36 44 81 11 51 10 59 -12 103 -31 60 -39 66 -104 80 -61
13 -101 13 -157 0z"/>
<path d="M3895 2026 c-15 -11 -17 -17 -8 -27 9 -11 8 -19 -3 -33 -16 -23 -19
-66 -4 -66 6 0 4 -13 -5 -31 -9 -17 -15 -42 -13 -57 4 -27 4 -27 23 11 23 45
31 46 40 7 4 -17 15 -35 25 -40 14 -7 20 -24 22 -58 2 -38 7 -49 26 -57 12 -5
22 -17 22 -27 0 -31 12 -48 35 -48 13 0 25 -7 29 -15 6 -17 35 -10 52 13 8 12
12 11 25 -4 7 -9 13 -19 12 -20 -6 -9 11 -34 22 -34 19 0 56 55 49 73 -4 11 1
13 20 10 14 -3 26 -10 26 -15 0 -5 18 -17 41 -27 l40 -18 -32 -26 -32 -25 37
-61 c21 -33 42 -61 47 -61 17 0 69 30 69 39 0 24 -14 41 -33 41 -16 0 -18 3
-9 12 20 20 15 76 -9 88 -31 17 -14 25 21 10 22 -9 34 -10 42 -2 6 6 17 8 24
5 18 -7 28 21 16 43 -6 12 -6 23 0 33 13 21 -6 71 -27 71 -8 0 -15 7 -15 15 0
8 -7 15 -15 15 -8 0 -15 7 -15 15 0 8 -7 15 -15 15 -8 0 -15 -5 -15 -11 0 -5
-4 -7 -10 -4 -5 3 -10 26 -10 51 0 32 -4 44 -15 44 -9 0 -15 9 -15 21 0 12 -5
19 -12 17 -8 -3 -12 -27 -13 -66 0 -46 -3 -61 -12 -57 -7 2 -13 -2 -13 -10 0
-8 -6 -15 -12 -15 -21 1 -98 76 -98 95 0 13 -6 16 -25 11 -21 -5 -27 -2 -34
17 -14 37 -56 64 -111 72 -28 4 -48 11 -45 15 3 5 1 11 -5 15 -5 3 -10 14 -10
25 0 30 -43 40 -75 16z"/>
<path d="M6591 1591 c-11 -7 -10 -15 8 -45 13 -20 27 -36 33 -36 24 0 -2 -25
-38 -35 -39 -10 -39 -11 -42 -64 -2 -37 -11 -65 -29 -92 -14 -22 -23 -43 -19
-47 4 -4 33 -6 64 -5 34 1 85 -6 125 -18 37 -11 76 -18 85 -14 24 7 62 -44 62
-82 0 -15 -7 -57 -16 -93 -8 -35 -14 -84 -12 -108 1 -35 -3 -47 -20 -61 -21
-15 -22 -22 -16 -93 6 -68 4 -80 -16 -112 -21 -34 -21 -38 -6 -61 19 -28 21
-68 5 -97 -8 -16 -8 -49 1 -128 l12 -108 -43 -63 c-26 -39 -51 -93 -66 -143
-13 -44 -23 -81 -23 -83 0 -2 243 -3 540 -3 523 0 540 1 540 19 0 10 7 22 16
25 11 4 15 14 12 31 -3 13 -1 26 5 28 5 1 0 18 -11 37 -19 30 -19 36 -7 60 15
29 54 45 85 35 14 -4 19 0 22 17 2 19 9 23 37 23 29 0 36 5 43 28 6 15 14 25
18 22 5 -3 6 -13 3 -21 -4 -12 0 -15 18 -12 16 2 24 9 23 20 -1 10 3 15 8 12
19 -12 57 39 69 91 10 47 15 54 41 57 15 3 37 -1 47 -9 46 -31 71 30 30 73
-18 20 -19 26 -9 64 6 24 9 53 6 66 -4 16 -1 24 12 28 9 3 25 23 34 43 14 34
14 40 1 55 -14 15 -13 20 7 48 12 17 20 39 17 50 -3 13 1 21 15 26 18 5 44 51
35 61 -10 10 -56 -22 -61 -42 -5 -18 -11 -21 -31 -17 -14 2 -25 9 -25 14 0 5
9 7 19 3 15 -5 24 1 35 24 19 37 20 62 3 85 -12 16 -16 15 -48 -21 -52 -58
-170 -123 -223 -123 -39 0 -43 -3 -55 -35 -13 -38 -22 -43 -40 -21 -9 10 -8
15 4 20 8 3 15 13 15 23 0 10 10 23 22 28 35 16 32 31 -14 58 -24 15 -54 41
-67 60 -22 30 -31 34 -75 36 -28 1 -64 3 -81 4 -26 2 -30 -1 -28 -20 2 -13 -2
-23 -8 -23 -5 0 -20 -11 -33 -25 l-24 -25 -7 27 -7 28 -13 -25 c-9 -16 -10
-29 -4 -36 6 -8 4 -14 -7 -18 -26 -10 -54 -7 -54 7 -1 21 -37 57 -74 72 -48
20 -55 19 -66 -10 -14 -36 -41 -33 -34 4 6 28 -9 51 -21 31 -11 -17 -25 -11
-25 11 0 12 -8 28 -17 35 -10 7 -14 16 -10 20 4 4 29 -14 56 -40 40 -39 50
-45 60 -33 9 12 2 22 -41 57 -29 23 -62 58 -73 78 -12 22 -28 36 -38 36 -9 -1
-17 5 -17 13 0 10 -8 12 -33 8 -29 -6 -36 -2 -65 34 -18 23 -41 41 -51 41 -11
0 -22 7 -25 16 -3 8 -14 14 -23 12 -10 -3 -29 1 -43 7 -14 7 -49 15 -79 19
-47 6 -63 15 -130 71 -42 36 -81 65 -86 65 -6 0 -19 20 -30 45 -15 33 -23 42
-34 36z"/>
<path d="M3908 1563 c-10 -2 -18 -11 -18 -18 0 -8 8 -19 18 -24 9 -6 13 -11 8
-11 -5 0 -18 8 -28 17 -13 12 -21 14 -29 6 -8 -8 -6 -15 10 -25 12 -7 21 -23
21 -36 0 -13 12 -39 26 -58 15 -20 21 -34 14 -34 -9 0 -11 -10 -7 -30 10 -47
36 -80 65 -80 24 0 24 -1 9 -18 -11 -12 -17 -36 -17 -72 l0 -52 30 6 c69 13
162 114 127 137 -5 4 1 13 12 21 l22 15 -31 26 c-27 24 -29 27 -13 36 14 8 15
11 3 12 -8 0 -1 7 15 14 l30 13 -30 13 c-35 16 -58 41 -44 50 17 10 -2 39 -25
39 -13 0 -26 -3 -30 -7 -7 -8 -46 -12 -46 -5 0 3 8 11 18 18 16 12 16 13 -4
14 -12 0 -33 9 -47 20 -26 20 -29 21 -59 13z"/>
<path d="M9865 1193 c-58 -14 -65 -60 -18 -116 14 -17 23 -42 23 -62 0 -30 20
-62 32 -49 3 2 12 -12 21 -33 18 -45 48 -63 97 -59 19 2 51 4 71 5 47 1 68 19
79 64 7 33 5 39 -16 56 -13 10 -37 50 -53 87 -25 60 -34 72 -72 91 -42 21
-113 28 -164 16z"/>
<path d="M3827 929 c17 -20 19 -26 8 -36 -7 -6 -16 -9 -19 -6 -3 4 -6 -2 -6
-13 0 -14 -5 -11 -21 14 -12 18 -23 31 -25 29 -3 -3 -11 -40 -13 -60 -2 -13
-41 18 -41 33 0 11 -4 10 -17 -4 -13 -13 -15 -20 -5 -23 6 -3 12 -13 12 -24 0
-10 7 -19 15 -19 8 0 22 -12 31 -26 l17 -26 12 23 12 22 14 -29 c23 -46 41
-41 72 21 27 55 34 99 19 122 -4 6 -25 14 -47 18 l-40 8 22 -24z"/>
<path d="M3365 783 c-9 -56 -26 -85 -41 -72 -22 18 -45 -47 -43 -121 1 -36 -3
-76 -10 -87 -6 -12 -11 -36 -11 -53 0 -25 3 -31 16 -26 12 5 15 2 10 -10 -3
-8 -6 -37 -6 -63 0 -45 -1 -48 -24 -44 -13 3 -30 17 -37 31 -16 31 -40 52 -51
46 -13 -8 -9 -64 4 -64 7 0 3 -9 -9 -21 -11 -12 -33 -22 -47 -22 -15 0 -26 -5
-26 -12 0 -8 -2 -20 -5 -27 -3 -8 4 -27 16 -42 22 -27 23 -28 37 -10 12 15 14
16 9 2 -8 -22 14 -39 42 -31 l23 6 -18 -28 c-14 -21 -15 -30 -6 -33 6 -2 12
-9 12 -15 0 -17 36 -38 54 -31 8 3 29 -2 48 -12 18 -9 27 -19 21 -21 -34 -12
-6 -23 54 -23 52 0 64 3 55 12 -7 7 -12 22 -12 34 0 12 -7 25 -16 28 -14 5
-15 16 -9 73 10 95 20 117 48 108 45 -13 52 -11 49 17 -2 22 1 25 17 21 10 -3
22 -14 24 -25 4 -14 11 -19 21 -15 9 4 16 2 16 -3 0 -6 4 -10 9 -10 16 0 20
43 5 64 -7 11 -14 31 -14 43 0 18 -6 23 -24 23 -13 0 -26 6 -29 13 -2 6 -12
-4 -21 -23 -8 -19 -13 -24 -10 -12 5 21 4 23 -15 13 -18 -10 -23 -7 -40 27
l-20 39 21 20 c12 12 31 59 44 107 18 71 21 93 12 119 -14 41 -15 42 -32 28
-22 -18 -36 -5 -36 34 0 80 -44 118 -55 48z"/>
<path d="M8964 606 l-27 -53 19 -46 c10 -26 22 -47 26 -47 4 0 5 -7 2 -15 -7
-17 2 -18 69 -9 59 8 67 28 28 68 -20 20 -34 49 -41 84 -7 32 -19 56 -30 62
-15 8 -22 1 -46 -44z"/>
<path d="M9383 623 c-26 -3 -34 -10 -39 -31 -4 -15 -20 -41 -37 -59 -27 -29
-29 -35 -22 -79 3 -25 9 -53 12 -61 5 -13 2 -13 -15 -4 -21 11 -22 9 -22 -22
0 -21 -8 -41 -20 -52 -25 -23 -25 -30 0 -55 l20 -20 -39 -93 c-22 -50 -43
-104 -46 -120 l-7 -27 113 0 114 0 19 46 c18 44 18 48 2 76 -14 23 -16 35 -7
60 6 17 11 55 11 84 0 53 -1 54 -29 54 -43 0 -47 33 -10 86 19 28 29 55 29 80
0 20 9 51 20 68 20 33 18 77 -4 74 -6 0 -26 -3 -43 -5z"/>
<path d="M8257 235 c-15 -14 -36 -25 -45 -25 -9 0 -35 -19 -59 -42 -33 -33
-45 -39 -56 -30 -20 17 -138 -23 -130 -44 3 -8 0 -21 -7 -29 -7 -8 -10 -26 -6
-40 l6 -25 409 0 c407 0 409 0 414 21 5 18 2 20 -18 17 -22 -5 -25 -1 -31 38
-4 31 -11 44 -23 45 -11 0 -12 2 -3 6 10 4 10 9 -4 24 -12 14 -21 16 -35 8
-14 -7 -29 -4 -61 12 -33 17 -53 20 -96 16 -51 -5 -58 -3 -100 29 -25 19 -54
34 -66 34 -12 0 -30 2 -41 5 -12 3 -31 -5 -48 -20z"/>
<path d="M3020 175 c0 -8 5 -15 12 -15 9 0 9 -3 0 -12 -18 -18 -15 -28 8 -28
16 0 20 -6 18 -30 -2 -24 -7 -30 -26 -30 -33 0 -23 -23 16 -34 18 -5 32 -13
32 -17 0 -5 32 -9 71 -9 47 0 68 3 64 11 -4 6 -13 8 -21 5 -8 -3 -19 4 -25 16
-8 15 -13 17 -19 8 -5 -8 -10 -9 -14 -2 -3 6 -2 13 4 17 16 10 12 25 -7 25
-13 0 -14 3 -5 8 21 14 -9 87 -36 87 -12 0 -24 4 -28 8 -13 13 -44 7 -44 -8z"/>
</g>
</svg>
